# xmcd
#
# Track frame offsets: 
#        300
#        13975
#        41323
#        69608
#        84742
#        106202
#        133885
#        149996
#        170189
#        200434
#        228452
#        254482
#        271369
#
# Disc length: 3854 seconds
#
# Revision: 0
# Processed by: cddbd v1.5.2PL0 Copyright (c) Steve Scherf et al.
# Submitted via: ExactAudioCopy v1.0b1
#
DISCID=cf0f0a0d
DTITLE=Jimmy Dawkins - Tribute to Orange
DYEAR=1971
DGENRE=Chicago Blues
TTITLE0=Ode to Billie Joe
TTITLE1=All for Business
TTITLE2=You Got to Keep on Trying
TTITLE3=Ain't Never Had Nothing
TTITLE4=Born in Poverty
TTITLE5=Marcelle Morgantini's Cassoule
TTITLE6=Your Love
TTITLE7=Tribute to Orange
TTITLE8=Mississippi Bound
TTITLE9=Life Is a Mean Mistreater
TTITLE10=Mean Atlantic Ocean
TTITLE11=It Serves You Right to Suffer
TTITLE12=Marcelle Jacques et Luc
EXTD=
EXTT0=
EXTT1=
EXTT2=
EXTT3=
EXTT4=
EXTT5=
EXTT6=
EXTT7=
EXTT8=
EXTT9=
EXTT10=
EXTT11=
EXTT12=
PLAYORDER=
